<svg width="22" height="23" viewBox="0 0 22 23" fill="none" xmlns="http://www.w3.org/2000/svg">
<path d="M10.1984 11.2195C11.6862 11.2195 13.113 10.6285 14.1651 9.57646C15.2171 8.52442 15.8081 7.09756 15.8081 5.60976C15.8081 4.12196 15.2171 2.69509 14.1651 1.64306C13.113 0.591026 11.6862 0 10.1984 0C8.71058 0 7.28372 0.591026 6.23168 1.64306C5.17965 2.69509 4.58862 4.12196 4.58862 5.60976C4.58862 7.09756 5.17965 8.52442 6.23168 9.57646C7.28372 10.6285 8.71058 11.2195 10.1984 11.2195Z" fill="#308ECC"/>
<path opacity="0.4" d="M10.1985 14.0244C4.57756 14.0244 0 17.7942 0 22.4391C0 22.7532 0.246829 23 0.560976 23H19.8361C20.1503 23 20.3971 22.7532 20.3971 22.4391C20.3971 17.7942 15.8195 14.0244 10.1985 14.0244Z" fill="#308ECC"/>
<path d="M20.7798 14.2934C19.77 13.2836 18.9734 13.609 18.289 14.2934L14.3173 18.2651C14.1603 18.4222 14.0144 18.7139 13.9807 18.9271L13.7676 20.4417C13.689 20.9915 14.0705 21.3729 14.6203 21.2944L16.1349 21.0812C16.3481 21.0476 16.651 20.9017 16.7968 20.7446L20.7685 16.7729C21.4642 16.0997 21.7895 15.3032 20.7798 14.2934Z" fill="#308ECC"/>
</svg>
