<svg width="21" height="23" viewBox="0 0 21 23" fill="none" xmlns="http://www.w3.org/2000/svg">
<path d="M10.1984 11.2195C11.6862 11.2195 13.113 10.6285 14.1651 9.57646C15.2171 8.52442 15.8081 7.09756 15.8081 5.60976C15.8081 4.12196 15.2171 2.69509 14.1651 1.64306C13.113 0.591026 11.6862 0 10.1984 0C8.71058 0 7.28372 0.591026 6.23168 1.64306C5.17965 2.69509 4.58862 4.12196 4.58862 5.60976C4.58862 7.09756 5.17965 8.52442 6.23168 9.57646C7.28372 10.6285 8.71058 11.2195 10.1984 11.2195Z" fill="#AC3483"/>
<path opacity="0.4" d="M10.1985 14.0244C4.57756 14.0244 0 17.7942 0 22.4391C0 22.7532 0.246829 23 0.560976 23H19.8361C20.1503 23 20.3971 22.7532 20.3971 22.4391C20.3971 17.7942 15.8195 14.0244 10.1985 14.0244Z" fill="#AC3483"/>
<path d="M19.2196 16.4981L20.6472 15.0715C21.1176 14.6013 21.1176 13.8231 20.6472 13.3529C20.4182 13.1268 20.1093 13 19.7874 13C19.4655 13 19.1565 13.1268 18.9276 13.3529L17.5 14.7796L16.0724 13.3529C15.8435 13.1268 15.5345 13 15.2126 13C14.8907 13 14.5818 13.1268 14.3528 13.3529C13.8824 13.8231 13.8824 14.6013 14.3528 15.0715L15.7804 16.4981L14.3528 17.9248C13.8824 18.395 13.8824 19.1732 14.3528 19.6433C14.5962 19.8865 14.9044 20 15.2126 20C15.5209 20 15.8291 19.8865 16.0724 19.6433L17.5 18.2166L18.9276 19.6433C19.1709 19.8865 19.4791 20 19.7874 20C20.0956 20 20.4038 19.8865 20.6472 19.6433C21.1176 19.1732 21.1176 18.395 20.6472 17.9248L19.2196 16.4981Z" fill="#AC3483"/>
</svg>
