<svg width="53" height="53" viewBox="0 0 53 53" fill="none" xmlns="http://www.w3.org/2000/svg">
<path d="M47.8546 15.3479C46.4412 10.5558 42.4441 6.55876 37.6521 5.14543C34.0083 4.08543 31.4908 4.17376 29.7462 5.47668C27.6483 7.0446 27.4054 9.87126 27.4054 11.8808V17.3796C27.4054 22.8121 29.8787 25.5725 34.7371 25.5725H41.075C43.0625 25.5725 45.9112 25.3296 47.4791 23.2317C48.8262 21.5092 48.9366 18.9917 47.8546 15.3479Z" fill="white"/>
<path d="M41.7596 29.5055C41.1854 28.843 40.3463 28.4676 39.485 28.4676H31.5792C27.6925 28.4676 24.5346 25.3097 24.5346 21.423V13.5172C24.5346 12.6559 24.1592 11.8167 23.4967 11.2426C22.8563 10.6684 21.9729 10.4034 21.1338 10.5138C15.9442 11.1763 11.1742 14.0251 8.06044 18.3092C4.9246 22.6155 3.77627 27.8713 4.77002 33.1272C6.20544 40.7238 12.2784 46.7967 19.8971 48.2322C21.1117 48.4751 22.3263 48.5855 23.5409 48.5855C27.5379 48.5855 31.4025 47.3488 34.6929 44.9417C38.9771 41.828 41.8259 37.058 42.4884 31.8684C42.5988 31.0072 42.3338 30.1459 41.7596 29.5055Z" fill="white"/>
</svg>
