<svg width="53" height="53" viewBox="0 0 53 53" fill="none" xmlns="http://www.w3.org/2000/svg">
<path d="M42.7755 10.801L29.8346 5.03721C27.9355 4.19805 25.0646 4.19805 23.1655 5.03721L10.2246 10.801C6.95629 12.2585 6.47046 14.246 6.47046 15.306C6.47046 16.366 6.95629 18.3535 10.2246 19.811L23.1655 25.5747C24.115 25.9943 25.3075 26.2151 26.5 26.2151C27.6925 26.2151 28.885 25.9943 29.8346 25.5747L42.7755 19.811C46.0438 18.3535 46.5296 16.366 46.5296 15.306C46.5296 14.246 46.0659 12.2585 42.7755 10.801Z" fill="white"/>
<path opacity="0.4" d="M26.5 37.63C25.6608 37.63 24.8216 37.4533 24.0487 37.122L9.16454 30.497C6.88996 29.4812 5.12329 26.765 5.12329 24.2695C5.12329 23.3641 5.85204 22.6354 6.75746 22.6354C7.66287 22.6354 8.39162 23.3641 8.39162 24.2695C8.39162 25.462 9.38537 27.0079 10.4895 27.4937L25.3737 34.1187C26.0804 34.4279 26.8975 34.4279 27.6041 34.1187L42.4883 27.4937C43.5925 27.0079 44.5862 25.4841 44.5862 24.2695C44.5862 23.3641 45.315 22.6354 46.2204 22.6354C47.1258 22.6354 47.8545 23.3641 47.8545 24.2695C47.8545 26.7429 46.0879 29.4812 43.8133 30.497L28.9291 37.122C28.1783 37.4533 27.3391 37.63 26.5 37.63Z" fill="white"/>
<path opacity="0.4" d="M26.5 48.5833C25.6608 48.5833 24.8216 48.4067 24.0487 48.0754L9.16454 41.4504C7.96085 40.9144 6.93843 40.0408 6.22115 38.9355C5.50387 37.8302 5.12252 36.5406 5.12329 35.2229C5.12329 34.3175 5.85204 33.5887 6.75746 33.5887C7.66288 33.5887 8.39163 34.3175 8.39163 35.2229C8.39163 36.6142 9.20871 37.8729 10.4895 38.4471L25.3737 45.0721C26.0804 45.3812 26.8975 45.3812 27.6041 45.0721L42.4883 38.4471C43.747 37.895 44.5862 36.6142 44.5862 35.2229C44.5862 34.3175 45.315 33.5887 46.2204 33.5887C47.1258 33.5887 47.8545 34.3175 47.8545 35.2229C47.8545 37.9171 46.2645 40.3462 43.8133 41.4504L28.9291 48.0754C28.1783 48.4067 27.3391 48.5833 26.5 48.5833Z" fill="white"/>
</svg>
