<svg width="54" height="53" viewBox="0 0 54 53" fill="none" xmlns="http://www.w3.org/2000/svg">
<path opacity="0.4" d="M20.25 15.9L20.25 37.1C20.25 44.1667 24.75 48.5834 31.95 48.5834L37.7775 48.5834C45 48.5834 49.5 44.1667 49.5 37.1L49.5 15.9221C49.5 8.85546 45 4.43879 37.8 4.43879L31.95 4.43879C24.75 4.41671 20.25 8.83338 20.25 15.9Z" fill="white"/>
<path d="M12.5325 17.9317L4.99502 25.3296C4.68119 25.6413 4.50519 26.0619 4.50519 26.5001C4.50519 26.9383 4.68119 27.3588 4.99502 27.6705L12.5325 35.0684C13.185 35.7088 14.265 35.7088 14.9175 35.0684C15.57 34.428 15.57 33.368 14.9175 32.7276L10.26 28.1563L34.3125 28.1563C35.235 28.1563 36 27.4055 36 26.5001C36 25.5946 35.235 24.8438 34.3125 24.8438L10.26 24.8438L14.9175 20.2726C15.255 19.9413 15.4125 19.5217 15.4125 19.1021C15.4125 18.6826 15.255 18.263 14.9175 17.9317C14.265 17.2692 13.2075 17.2692 12.5325 17.9317Z" fill="white"/>
</svg>
