<svg width="22" height="25" viewBox="0 0 22 25" fill="none" xmlns="http://www.w3.org/2000/svg">
<path d="M8.98659 1.07047L3.18142 3.25759C1.84356 3.75783 0.75 5.34 0.75 6.7593V15.4031C0.75 16.7758 1.65742 18.579 2.76261 19.405L7.76506 23.1394C9.4054 24.3726 12.1044 24.3726 13.7447 23.1394L18.7472 19.405C19.8524 18.579 20.7598 16.7758 20.7598 15.4031V6.7593C20.7598 5.32837 19.6662 3.7462 18.3284 3.24595L12.5232 1.07047C11.5343 0.709827 9.95218 0.709827 8.98659 1.07047Z" stroke="#B5B5B5" stroke-width="1.5" stroke-linecap="round" stroke-linejoin="round"/>
<path d="M10.7432 13.0182C11.3603 13.0182 11.9521 12.773 12.3885 12.3367C12.8248 11.9004 13.0699 11.3086 13.0699 10.6915C13.0699 10.0744 12.8248 9.48257 12.3885 9.04623C11.9521 8.60988 11.3603 8.36475 10.7432 8.36475C10.1261 8.36475 9.53433 8.60988 9.09798 9.04623C8.66164 9.48257 8.4165 10.0744 8.4165 10.6915C8.4165 11.3086 8.66164 11.9004 9.09798 12.3367C9.53433 12.773 10.1261 13.0182 10.7432 13.0182ZM10.7432 13.0182V16.5083" stroke="#B5B5B5" stroke-width="1.5" stroke-miterlimit="10" stroke-linecap="round" stroke-linejoin="round"/>
</svg>
