<svg width="21" height="24" viewBox="0 0 21 24" fill="none" xmlns="http://www.w3.org/2000/svg">
<path d="M20 23C20 18.743 15.7421 15.3 10.5 15.3C5.25786 15.3 1 18.743 1 23M10.5 12C11.9666 12 13.3731 11.4205 14.4101 10.3891C15.4471 9.35764 16.0297 7.95869 16.0297 6.5C16.0297 5.04131 15.4471 3.64236 14.4101 2.61091C13.3731 1.57946 11.9666 1 10.5 1C9.03344 1 7.62694 1.57946 6.58992 2.61091C5.5529 3.64236 4.97031 5.04131 4.97031 6.5C4.97031 7.95869 5.5529 9.35764 6.58992 10.3891C7.62694 11.4205 9.03344 12 10.5 12Z" stroke="#B5B5B5" stroke-width="1.5" stroke-linecap="round" stroke-linejoin="round"/>
</svg>
